<svg xmlns="http://www.w3.org/2000/svg" xmlns:svg="http://www.w3.org/2000/svg" xmlns:xlink="http://www.w3.org/1999/xlink" id="svg319" width="2048" height="2048" version="1.1" viewBox="0 0 541.867 541.867"><defs id="defs313"><linearGradient id="linearGradient11104-2" x1="-276.775" x2="-276.775" y1="181.022" y2="208.487" gradientTransform="matrix(2.3946699,0,0,2.3946699,444.53851,-117.45212)" gradientUnits="userSpaceOnUse" xlink:href="#linearGradient4992"/><linearGradient id="linearGradient4992"><stop style="stop-color:#faf327;stop-opacity:1" id="stop4988" offset="0"/><stop style="stop-color:#fa2c8d;stop-opacity:1" id="stop4990" offset="1"/></linearGradient><linearGradient id="linearGradient22598" x1="-143.434" x2="-143.434" y1="645.457" y2="751.203" gradientTransform="matrix(8.1220011,0,0,8.1220011,2145.002,-4828.808)" gradientUnits="userSpaceOnUse" xlink:href="#linearGradient4992"/><linearGradient id="linearGradient22600" x1="-33.991" x2="-25.952" y1="344.729" y2="362.6" gradientTransform="translate(18.88122,-401.28647)" gradientUnits="userSpaceOnUse" xlink:href="#linearGradient19205"/><linearGradient id="linearGradient19205"><stop style="stop-color:#f95;stop-opacity:1" id="stop19201" offset="0"/><stop style="stop-color:#fff;stop-opacity:0" id="stop19203" offset="1"/></linearGradient><linearGradient id="linearGradient22602" x1="-33.991" x2="-25.952" y1="344.729" y2="362.6" gradientTransform="matrix(0.49643156,0,0,0.49643156,-126.97876,-208.55879)" gradientUnits="userSpaceOnUse" xlink:href="#linearGradient19205"/><linearGradient id="linearGradient22604" x1="-33.991" x2="-25.952" y1="344.729" y2="362.6" gradientTransform="matrix(0.64522564,0,0,0.64522564,-113.30702,-194.34482)" gradientUnits="userSpaceOnUse" xlink:href="#linearGradient19205"/></defs><metadata id="metadata316"/><g id="layer1" transform="translate(436.78015,15.801637)"><g id="g526" transform="translate(0,44.18345)"><g id="g20249-3-3" transform="matrix(2.1489458,0,0,2.1489458,4.8812138,178.19814)" style="stroke-width:.739316"><path id="path4608-8-6-9" d="M 995.89258 373.20117 A 434.86336 434.86336 0 0 0 561.0293 808.06445 A 434.86336 434.86336 0 0 0 561.50977 828.48633 L 1430.2754 828.48633 A 434.86336 434.86336 0 0 0 1430.7559 808.06445 A 434.86336 434.86336 0 0 0 995.89258 373.20117 z M 569.38672 892.90625 A 434.86336 434.86336 0 0 0 578.19336 929.0293 L 1413.5918 929.0293 A 434.86336 434.86336 0 0 0 1422.3984 892.90625 L 569.38672 892.90625 z M 602.52734 993.44922 A 434.86336 434.86336 0 0 0 620.32617 1027.2773 L 1371.459 1027.2773 A 434.86336 434.86336 0 0 0 1389.2598 993.44922 L 602.52734 993.44922 z M 648.51172 1069.6543 A 434.86336 434.86336 0 0 0 674.72852 1101.248 L 1317.0586 1101.248 A 434.86336 434.86336 0 0 0 1343.2773 1069.6543 L 648.51172 1069.6543 z M 717.91211 1142.4746 A 434.86336 434.86336 0 0 0 752.45508 1168.4004 L 1239.332 1168.4004 A 434.86336 434.86336 0 0 0 1273.877 1142.4746 L 717.91211 1142.4746 z M 842.85742 1215.1074 A 434.86336 434.86336 0 0 0 995.89258 1242.9277 A 434.86336 434.86336 0 0 0 1148.9355 1215.1074 L 842.85742 1215.1074 z" transform="matrix(0.12312239,0,0,0.12312239,-205.52466,-110.83724)" style="mix-blend-mode:normal;fill:url(#linearGradient22598);fill-opacity:1;stroke:none;stroke-width:3.00235;stroke-miterlimit:4;stroke-dasharray:none;stroke-dashoffset:0;stroke-opacity:1"/><circle style="mix-blend-mode:normal;fill:url(#linearGradient22600);fill-opacity:1;stroke:none;stroke-width:.739316;stroke-miterlimit:4;stroke-dasharray:none;stroke-dashoffset:0;stroke-opacity:1" id="circle21057-1-4-4-9" cx="-17.476" cy="-50.398" r="11.615"/><circle style="mix-blend-mode:normal;fill:url(#linearGradient22602);fill-opacity:1;stroke:none;stroke-width:.36702;stroke-miterlimit:4;stroke-dasharray:none;stroke-dashoffset:0;stroke-opacity:1" id="circle19287-4-7-0" cx="-145.028" cy="-34.367" r="5.766"/><circle style="mix-blend-mode:normal;fill:url(#linearGradient22604);fill-opacity:1;stroke:none;stroke-width:.477026;stroke-miterlimit:4;stroke-dasharray:none;stroke-dashoffset:0;stroke-opacity:1" id="circle19291-4-8-8" cx="-136.766" cy="32.057" r="7.495"/></g><text style="font-style:normal;font-variant:normal;font-weight:100;font-stretch:normal;font-size:89.8398px;line-height:1.25;font-family:Overpass;-inkscape-font-specification:'Overpass Thin';letter-spacing:0;word-spacing:0;fill:url(#linearGradient11104-2);fill-opacity:1;stroke:none;stroke-width:.285801" id="text6471-7-96" x="-430.278" y="381.867" xml:space="preserve"><tspan id="tspan6469-9-3" x="-430.278" y="381.867" style="font-style:italic;font-variant:normal;font-weight:800;font-stretch:normal;font-family:'JetBrains Mono';-inkscape-font-specification:'JetBrains Mono Ultra-Bold Italic';fill:url(#linearGradient11104-2);fill-opacity:1;stroke-width:.285801">RETROLAB</tspan></text></g></g></svg>